inDegrees=no
num_controls=7
num_derivatives=13
num_iterations=108
num_multipliers=7
num_parameters=0
num_slacks=7
num_states=26
objective=0.444832
objective_accelerations=0.057628
objective_balance=0.003417
objective_effort=0.023060
objective_height=0.355240
objective_ligament=0.005487
solver_duration=1567.857393
status=Solve_Succeeded
success=true
DataType=double
version=3
OpenSimVersion=4.5
endheader
time	/jointset/ground_pelvis/pelvis_tilt/value	/jointset/ground_pelvis/pelvis_tx/value	/jointset/ground_pelvis/pelvis_ty/value	/jointset/hip_l/hip_flexion_l/value	/jointset/hip_l/hip_adduction_l/value	/jointset/hip_l/hip_rotation_l/value	/jointset/back/lumbar_extension/value	/jointset/patellofemoral_l/patellar_flexion_l/value	/jointset/knee_l/knee_flexion_l/value	/jointset/knee_l/knee_adduction_l/value	/jointset/knee_l/knee_rotation_l/value	/jointset/ankle_l/ankle_angle_l/value	/jointset/subtalar_l/subtalar_angle_l/value	/jointset/ground_pelvis/pelvis_tilt/speed	/jointset/ground_pelvis/pelvis_tx/speed	/jointset/ground_pelvis/pelvis_ty/speed	/jointset/hip_l/hip_flexion_l/speed	/jointset/hip_l/hip_adduction_l/speed	/jointset/hip_l/hip_rotation_l/speed	/jointset/back/lumbar_extension/speed	/jointset/patellofemoral_l/patellar_flexion_l/speed	/jointset/knee_l/knee_flexion_l/speed	/jointset/knee_l/knee_adduction_l/speed	/jointset/knee_l/knee_rotation_l/speed	/jointset/ankle_l/ankle_angle_l/speed	/jointset/subtalar_l/subtalar_angle_l/speed	/forceset/tau_hip_flexion_l	/forceset/tau_hip_adduction_l	/forceset/tau_hip_rotation_l	/forceset/tau_knee_flexion_l	/forceset/tau_ankle_angle_l	/forceset/tau_subtalar_angle_l	/forceset/tau_lumbar_extension	lambda_cid13_p0	lambda_cid13_p1	lambda_cid13_p2	lambda_cid13_p3	lambda_cid13_p4	lambda_cid13_p5	lambda_cid14_p0	/jointset/ground_pelvis/pelvis_tilt/accel	/jointset/ground_pelvis/pelvis_tx/accel	/jointset/ground_pelvis/pelvis_ty/accel	/jointset/hip_l/hip_flexion_l/accel	/jointset/hip_l/hip_adduction_l/accel	/jointset/hip_l/hip_rotation_l/accel	/jointset/back/lumbar_extension/accel	/jointset/patellofemoral_l/patellar_flexion_l/accel	/jointset/knee_l/knee_flexion_l/accel	/jointset/knee_l/knee_adduction_l/accel	/jointset/knee_l/knee_rotation_l/accel	/jointset/ankle_l/ankle_angle_l/accel	/jointset/subtalar_l/subtalar_angle_l/accel	gamma_cid13_p0	gamma_cid13_p1	gamma_cid13_p2	gamma_cid13_p3	gamma_cid13_p4	gamma_cid13_p5	gamma_cid14_p0
0	-0.03922330778665704	0.06878018142585875	0.895938656853855	0.1955287580552426	-0.3221339985993724	-0.480853079220564	-0.1379045077516729	0.0701528807908475	0.07015288079084844	-0.1745327114439117	-0.115446226964413	-0.06701059314715049	0.003653945070900677	0	0	0	0	0	0	0	0	0	0	0	0	0	0.1090509853067633	-0.1052316023030522	-0.03071605400586911	-0.2414349078000629	0.2025891551236883	-0.01319352238181667	-0.05298047332383164	29.51113486859976	-2.160958756905353	3.119741567504968	-4.105839981666803	-515.23377416699	-82.69772761262867	-39.85178463187894	-4.440679382130033	-1.762852139533182	-0.9758412728763967	12.51692267880843	-2.142776024220723	3.365569931662151	-2.794335623695372	10.38980683963971	10.3898068396397	0.6844330981423223	-0.8624023792906769	2.515636484162213	-0.9820498186058784	-2.889938707947039e-08	1.166995656649346e-07	1.15254276047389e-07	1.445253056650803e-08	-2.661084748424694e-08	-4.300828535740564e-08	-5.552074948303863e-09
0.01	-0.039435304868554	0.06869325124856333	0.8958912587123389	0.196134257412026	-0.3222395752242345	-0.4806839029689874	-0.1380505507998024	0.07065771110399845	0.07065771110399757	-0.1745021382929474	-0.1154829737723362	-0.06688969835139121	0.003603852649458992	-0.04221740281656011	-0.01730649234462196	-0.009451629712669061	0.1205763020380252	-0.0210192794861707	0.03370602606463212	-0.0289943725392143	0.1005231635871232	0.1005231635871201	0.006080432815329194	-0.007297894990331761	0.02407447878257048	-0.009971226852629847	0.1053702409502542	-0.1038217997564232	-0.0300553885100005	-0.2371760156968478	0.1970765049948587	-0.01134564982085634	-0.04981742363566392	27.78259817420464	-2.691811408138105	3.239755223438674	-3.540424837794206	-516.0308371114446	-83.64156239413711	-39.86203966355927	-4.084979557547121	-1.702613424180906	-0.925629354060199	11.74943714923883	-2.067127677154181	3.353722894506729	-2.919852506006004	9.817137372179042	9.817137372178648	0.5647521676150296	-0.6557522663262269	2.337682796817417	-0.9976021169883813	-7.120306271414011e-08	1.483997161961063e-07	2.049496548597383e-07	5.041237439278666e-08	-2.50146483904486e-07	-9.903646537234137e-08	-1.310410561812239e-08
0.02	-0.04006401774384462	0.06843564301937094	0.8957501831669762	0.1979298104257779	-0.3225524693972262	-0.4801815456666386	-0.1384801104607199	0.07215448630380766	0.07215448630380814	-0.1744117800549014	-0.1155911533716472	-0.06653119292350379	0.003455459359811582	-0.08334315867824349	-0.03413561037939586	-0.0187354807693013	0.2380107313936204	-0.0414635096259031	0.06663621015498414	-0.05670332255729193	0.1983889773314627	0.1983889773314582	0.01195701740612938	-0.01428655827753511	0.04752212642565821	-0.01966017364113481	0.1016894965937711	-0.1024119972097817	-0.02939472301412911	-0.2329171235936156	0.1915638548660393	-0.009497777259876938	-0.04665437394749133	26.11843268333847	-3.235375147844839	3.363441673588731	-3.141948849342446	-515.8917585295436	-84.42055028449282	-39.89222511916373	-4.22234999115471	-1.667377277563545	-0.9422855416690367	11.88854814232237	-2.027766154933124	3.210401536806127	-2.537251119468033	9.858336871082988	9.85833687108329	0.6436634532363857	-0.8005560386649953	2.390270256265673	-0.9255938057809623	-1.135067383488098e-07	1.800998667272781e-07	2.946450336720875e-07	8.637221821906527e-08	-4.73682120324725e-07	-1.550646453872771e-07	-2.065613628794092e-08
0.03	-0.04109888165206473	0.06801224172800441	0.8955168432954164	0.2008847306884773	-0.323066638969732	-0.4793541428487558	-0.1391792400503547	0.07461714314440299	0.07461714314440455	-0.1742631355806507	-0.1157681791201646	-0.06594099135068462	0.003212081470559076	-0.1234206963104789	-0.05045134119748168	-0.02792210205035382	0.3524154891902082	-0.06124618344118354	0.09870560681810656	-0.0828634351130378	0.2936867137115973	0.2936867137115677	0.0177639859054171	-0.02106729700267123	0.07042621358963591	-0.02893250174718049	0.09683633337970089	-0.09923949304648315	-0.02854892499819858	-0.2279532025974403	0.1855443440118054	-0.008433734653877338	-0.04261996259591503	24.25870559498435	-3.44618368744707	3.481940678563793	-2.553958717048548	-515.8392702100095	-84.31424246063887	-39.94110741401481	-3.869129447288477	-1.599657559675516	-0.9053873370821861	11.13274427867534	-1.934936950499392	3.184358076797078	-2.616517285131224	9.29714462180258	9.297144621798868	0.5480946878958378	-0.609102517022545	2.226679875084284	-0.9156784887100928	-1.431137371009691e-07	1.964055132626532e-07	3.490377384832335e-07	1.147423856442361e-07	-6.465713014381649e-07	-1.919451852577588e-07	-2.470751297082298e-08
0.04	-0.0425282556962155	0.06742848581330824	0.8951919298278942	0.2049669594652118	-0.3237749190715247	-0.4782102161950951	-0.1401321959578484	0.07801910786886476	0.07801910786886497	-0.1740566451934752	-0.1160114662014492	-0.06512450852050153	0.002878455065107323	-0.1622451858639287	-0.0662065350453227	-0.03705019996179888	0.4634724342007342	-0.08028561548341989	0.1299409773105002	-0.1074685861289197	0.3862505541046863	0.3862505541046389	0.02352619998953792	-0.0275388248311916	0.09277837789843149	-0.03770987688097612	0.09198317016563314	-0.096066988883184	-0.02770312698227471	-0.2229892816012707	0.1795248331575673	-0.007369692047879223	-0.03858555124433262	22.45762612884359	-3.667530218100833	3.602428180549066	-2.121358105529849	-514.9354569285747	-84.05275780097739	-40.00712304009673	-3.971740375397584	-1.555269883514565	-0.9305808677475428	11.21898558510998	-1.879117800324329	3.043596302660375	-2.226258811495233	9.311557673673862	9.311557673675628	0.6347125702029578	-0.7387138593418434	2.279885685229265	-0.8266032113309666	-1.724589487009116e-07	2.123937473445068e-07	4.027025531087876e-07	1.429560648961882e-07	-8.184162257411554e-07	-2.284309284242312e-07	-2.868671122098471e-08
